<?xml version="1.0" encoding="UTF-8"?>
<svg version="1.1" xmlns="http://www.w3.org/2000/svg" width="118" height="118">
<path d="M0 0 C38.94 0 77.88 0 118 0 C118 38.94 118 77.88 118 118 C79.06 118 40.12 118 0 118 C0 79.06 0 40.12 0 0 Z " fill="#FDFDFD" transform="translate(0,0)"/>
<path d="M0 0 C6.27 0 12.54 0 19 0 C19.495 3.465 19.495 3.465 20 7 C20.81082031 7.20753906 21.62164062 7.41507813 22.45703125 7.62890625 C30.90298648 9.9788286 39.94577337 12.93450535 45.62182617 20.02636719 C47.56330729 24.21542654 47.37403811 27.89660951 47.29296875 32.45703125 C47.28872391 33.35999435 47.28447906 34.26295746 47.28010559 35.19328308 C47.26336311 38.0666635 47.22571916 40.93933291 47.1875 43.8125 C47.17244743 45.7649638 47.15876003 47.71743864 47.14648438 49.66992188 C47.11347408 54.44688697 47.06172235 59.22332309 47 64 C48.65 64 50.3 64 52 64 C52.33 58.39 52.66 52.78 53 47 C51.515 46.505 51.515 46.505 50 46 C48.58558126 43.17116253 48.68099668 41.12623255 49 38 C51.08359207 35.6848977 52.44435228 35.09723835 55.5 34.5625 C58.86650098 35.15163767 60.00108769 36.26074979 62 39 C62.5 41.5 62.5 41.5 62 44 C60.1875 46.3125 60.1875 46.3125 58 48 C57.01 48 56.02 48 55 48 C55 54.27 55 60.54 55 67 C56.65 67 58.3 67 60 67 C60.02687279 68.81242052 60.04633715 70.62495233 60.0625 72.4375 C60.07410156 73.44683594 60.08570312 74.45617187 60.09765625 75.49609375 C60 78 60 78 59 79 C57.00041636 79.04080783 54.99954746 79.04254356 53 79 C52.505 80.485 52.505 80.485 52 82 C50.68 82 49.36 82 48 82 C48.226875 82.86625 48.45375 83.7325 48.6875 84.625 C49 88 49 88 46 94 C21.25 94 -3.5 94 -29 94 C-31 90 -31 90 -31 87 C-18.79 86.67 -6.58 86.34 6 86 C-3.31845686 85.05507563 -3.31845686 85.05507563 -12.63745117 84.11547852 C-13.80252197 83.99615967 -14.96759277 83.87684082 -16.16796875 83.75390625 C-17.35672607 83.63345947 -18.5454834 83.5130127 -19.77026367 83.38891602 C-22.5589645 83.05310829 -25.25768037 82.59910528 -28 82 C-28 80.35 -28 78.7 -28 77 C-26.02 77.66 -24.04 78.32 -22 79 C-22 77.68 -22 76.36 -22 75 C-23.98 75 -25.96 75 -28 75 C-28 62.79 -28 50.58 -28 38 C-27.67 38 -27.34 38 -27 38 C-26.67 45.59 -26.34 53.18 -26 61 C-23.03 60.505 -23.03 60.505 -20 60 C-19.34 56.37 -18.68 52.74 -18 49 C-19.98 49 -21.96 49 -24 49 C-24 46.69 -24 44.38 -24 42 C-18.39 42 -12.78 42 -7 42 C-7 43.98 -7 45.96 -7 48 C-7.66 48 -8.32 48 -9 48 C-9 50.97 -9 53.94 -9 57 C-7.35 57.33 -5.7 57.66 -4 58 C-3.67 57.34 -3.34 56.68 -3 56 C-3 58.31 -3 60.62 -3 63 C-0.69 63 1.62 63 4 63 C3.979375 61.989375 3.95875 60.97875 3.9375 59.9375 C3.99687734 56.19672743 4.39795085 52.68755102 5 49 C3.35 49 1.7 49 0 49 C0 46.69 0 44.38 0 42 C5.28 42 10.56 42 16 42 C16 47 16 47 14.5 48.8125 C12.15550479 52.23155552 12.67001079 54.90813383 13 59 C15.1385485 61.1385485 16.13275314 61.42655063 19 62 C19.33 60.68 19.66 59.36 20 58 C20.66 59.32 21.32 60.64 22 62 C23.98 62 25.96 62 28 62 C28.33 57.71 28.66 53.42 29 49 C27.35 49 25.7 49 24 49 C24 46.69 24 44.38 24 42 C29.28 42 34.56 42 40 42 C40 43.65 40 45.3 40 47 C39.01 47.99 39.01 47.99 38 49 C37.53993654 51.20250992 37.53993654 51.20250992 37.375 53.625 C37.26285156 54.85089844 37.26285156 54.85089844 37.1484375 56.1015625 C37.09945312 56.72804687 37.05046875 57.35453125 37 58 C38.65 57.67 40.3 57.34 42 57 C42.02898816 53.06251542 42.04679464 49.12505821 42.0625 45.1875 C42.07506836 43.50817383 42.07506836 43.50817383 42.08789062 41.79492188 C42.09272461 40.18520508 42.09272461 40.18520508 42.09765625 38.54296875 C42.10551147 37.0583313 42.10551147 37.0583313 42.11352539 35.54370117 C42.11069959 32.87607266 42.11069959 32.87607266 41 30 C33.74 30 26.48 30 19 30 C19 29.34 19 28.68 19 28 C18.34 28 17.68 28 17 28 C17 28.66 17 29.32 17 30 C11.74722834 32.2896697 7.49539995 32.08808919 2 31 C1.34 30.67 0.68 30.34 0 30 C0 29.34 0 28.68 0 28 C-0.66 28 -1.32 28 -2 28 C-2.33 28.99 -2.66 29.98 -3 31 C-3.33 30.67 -3.66 30.34 -4 30 C-5.41570123 29.91348389 -6.835595 29.89295096 -8.25390625 29.90234375 C-9.53491211 29.90717773 -9.53491211 29.90717773 -10.84179688 29.91210938 C-11.73962891 29.92048828 -12.63746094 29.92886719 -13.5625 29.9375 C-14.91504883 29.94426758 -14.91504883 29.94426758 -16.29492188 29.95117188 C-18.53001314 29.96299775 -20.76497437 29.9794778 -23 30 C-23.33 28.68 -23.66 27.36 -24 26 C-24.639375 25.87625 -25.27875 25.7525 -25.9375 25.625 C-26.9584375 25.315625 -26.9584375 25.315625 -28 25 C-28.33 24.34 -28.66 23.68 -29 23 C-25.05009854 15.45927902 -18.02052228 11.91502299 -10.1875 9.125 C-7.05195454 8.1743293 -4.30041678 7.68060483 -1 8 C-0.67 5.36 -0.34 2.72 0 0 Z " fill="#8A8D8B" transform="translate(44,12)"/>
<path d="M0 0 C24.42 0 48.84 0 74 0 C74.020625 7.363125 74.04125 14.72625 74.0625 22.3125 C74.071604 24.63450439 74.08070801 26.95650879 74.09008789 29.34887695 C74.09300819 31.18701113 74.09555648 33.02514595 74.09765625 34.86328125 C74.10277222 35.81956421 74.10788818 36.77584717 74.11315918 37.7611084 C74.11334045 39.13099915 74.11334045 39.13099915 74.11352539 40.52856445 C74.115746 41.32132278 74.11796661 42.11408112 74.12025452 42.93086243 C73.92550704 46.28174967 73.20999758 47.79184796 70.82273865 50.15812683 C67.50145132 52.32530941 65.76802387 52.49148221 61.83618164 52.4699707 C60.61463882 52.47289627 59.39309601 52.47582184 58.13453674 52.47883606 C56.82299118 52.46132797 55.51144562 52.44381989 54.16015625 52.42578125 C52.79162574 52.42085222 51.42308846 52.41755668 50.05455017 52.41581726 C47.19052478 52.40819043 44.32700149 52.38767527 41.46313477 52.35668945 C37.80374951 52.31715325 34.14469048 52.29908352 30.485116 52.28938007 C26.98091919 52.27937233 23.47680038 52.25952437 19.97265625 52.23828125 C18.00837425 52.22720085 18.00837425 52.22720085 16.00440979 52.21589661 C14.77971481 52.20306137 13.55501984 52.19022614 12.29321289 52.17700195 C11.22019424 52.16715775 10.1471756 52.15731354 9.04164124 52.14717102 C6 52 6 52 0 51 C0 38.79 0 26.58 0 14 C0.33 14 0.66 14 1 14 C1.33 21.59 1.66 29.18 2 37 C4.97 36.505 4.97 36.505 8 36 C8.66 32.37 9.32 28.74 10 25 C8.02 25 6.04 25 4 25 C4 22.69 4 20.38 4 18 C9.61 18 15.22 18 21 18 C21 19.98 21 21.96 21 24 C20.34 24 19.68 24 19 24 C19 26.97 19 29.94 19 33 C20.65 33.33 22.3 33.66 24 34 C24.33 33.34 24.66 32.68 25 32 C25 34.31 25 36.62 25 39 C27.31 39 29.62 39 32 39 C31.979375 37.989375 31.95875 36.97875 31.9375 35.9375 C31.99687734 32.19672743 32.39795085 28.68755102 33 25 C31.35 25 29.7 25 28 25 C28 22.69 28 20.38 28 18 C33.28 18 38.56 18 44 18 C44 23 44 23 42.5 24.8125 C40.15550479 28.23155552 40.67001079 30.90813383 41 35 C43.1385485 37.1385485 44.13275314 37.42655063 47 38 C47.33 36.68 47.66 35.36 48 34 C48.66 35.32 49.32 36.64 50 38 C51.98 38 53.96 38 56 38 C56.33 33.71 56.66 29.42 57 25 C55.35 25 53.7 25 52 25 C52 22.69 52 20.38 52 18 C57.28 18 62.56 18 68 18 C68 19.65 68 21.3 68 23 C67.34 23.66 66.68 24.32 66 25 C65.53993654 27.20250992 65.53993654 27.20250992 65.375 29.625 C65.30023438 30.44226563 65.22546875 31.25953125 65.1484375 32.1015625 C65.09945312 32.72804687 65.05046875 33.35453125 65 34 C66.65 33.67 68.3 33.34 70 33 C70.02898816 29.06251542 70.04679464 25.12505821 70.0625 21.1875 C70.07506836 19.50817383 70.07506836 19.50817383 70.08789062 17.79492188 C70.09272461 16.18520508 70.09272461 16.18520508 70.09765625 14.54296875 C70.10551147 13.0583313 70.10551147 13.0583313 70.11352539 11.54370117 C70.11069959 8.87607266 70.11069959 8.87607266 69 6 C61.74 6 54.48 6 47 6 C47 5.34 47 4.68 47 4 C46.34 4 45.68 4 45 4 C45 4.66 45 5.32 45 6 C39.74722834 8.2896697 35.49539995 8.08808919 30 7 C29.34 6.67 28.68 6.34 28 6 C28 5.34 28 4.68 28 4 C27.34 4 26.68 4 26 4 C25.67 4.99 25.34 5.98 25 7 C24.67 6.67 24.34 6.34 24 6 C22.58429877 5.91348389 21.164405 5.89295096 19.74609375 5.90234375 C18.46508789 5.90717773 18.46508789 5.90717773 17.15820312 5.91210938 C15.81145508 5.92467773 15.81145508 5.92467773 14.4375 5.9375 C13.53580078 5.94201172 12.63410156 5.94652344 11.70507812 5.95117188 C9.46998686 5.96299775 7.23502563 5.9794778 5 6 C4.67 4.68 4.34 3.36 4 2 C2.68 1.67 1.36 1.34 0 1 C0 0.67 0 0.34 0 0 Z " fill="#858278" transform="translate(16,36)"/>
<path d="M0 0 C2.4375 0.75 2.4375 0.75 5 2 C5.33 3.32 5.66 4.64 6 6 C12.27 6 18.54 6 25 6 C25.33 5.34 25.66 4.68 26 4 C26.99 4 27.98 4 29 4 C29 4.66 29 5.32 29 6 C37.52465003 7.03815092 37.52465003 7.03815092 46 6 C46 5.34 46 4.68 46 4 C46.66 4 47.32 4 48 4 C48 4.66 48 5.32 48 6 C59.385 5.505 59.385 5.505 71 5 C71.88070529 8.52282114 72.11668989 11.0623004 72.09765625 14.640625 C72.09282227 16.24550781 72.09282227 16.24550781 72.08789062 17.8828125 C72.07532227 19.54957031 72.07532227 19.54957031 72.0625 21.25 C72.05798828 22.37664063 72.05347656 23.50328125 72.04882812 24.6640625 C72.03705397 27.44276217 72.0206084 30.22135409 72 33 C70.125 34.0625 70.125 34.0625 68 35 C67.34 34.67 66.68 34.34 66 34 C65.94600264 32.54207116 65.90720823 31.08357288 65.875 29.625 C65.85179688 28.81289062 65.82859375 28.00078125 65.8046875 27.1640625 C66 25 66 25 68 23 C68.33 21.35 68.66 19.7 69 18 C63.72 18 58.44 18 53 18 C53 20.31 53 22.62 53 25 C54.98 24.67 56.96 24.34 59 24 C58.43393721 28.69023454 57.81462495 33.34500026 57 38 C53.535 38.495 53.535 38.495 50 39 C49.505 37.02 49.505 37.02 49 35 C48.67 35.99 48.34 36.98 48 38 C43.25 37.25 43.25 37.25 41 35 C40.42535915 27.87445347 40.42535915 27.87445347 42.4375 24.8125 C42.953125 24.214375 43.46875 23.61625 44 23 C44.33 21.35 44.66 19.7 45 18 C39.72 18 34.44 18 29 18 C29 20.31 29 22.62 29 25 C30.98 24.67 32.96 24.34 35 24 C34.38487182 29.00890086 33.7282448 34.00632136 33 39 C30.69 39 28.38 39 26 39 C25.505 36.525 25.505 36.525 25 34 C24.195625 34.020625 23.39125 34.04125 22.5625 34.0625 C20 34 20 34 19 33 C18.76271186 26.47457627 18.76271186 26.47457627 20 24 C20.66 24 21.32 24 22 24 C22 22.02 22 20.04 22 18 C16.39 18 10.78 18 5 18 C5 20.31 5 22.62 5 25 C8.465 24.505 8.465 24.505 12 24 C11.69240822 25.97993541 11.3787932 27.95893599 11.0625 29.9375 C10.88847656 31.03964844 10.71445312 32.14179687 10.53515625 33.27734375 C10 36 10 36 9 37 C7.00041636 37.04080783 4.99954746 37.04254356 3 37 C2.505 35.515 2.505 35.515 2 34 C1.67 39.61 1.34 45.22 1 51 C2.98 51 4.96 51 7 51 C7 52.32 7 53.64 7 55 C5.35 54.67 3.7 54.34 2 54 C1.67 55.32 1.34 56.64 1 58 C1.69480469 58.04898438 2.38960937 58.09796875 3.10546875 58.1484375 C6.73839847 58.41549697 10.36925557 58.70506558 14 59 C15.31701904 59.10465576 15.31701904 59.10465576 16.66064453 59.21142578 C19.52473443 59.44309096 22.38732985 59.68895282 25.25 59.9375 C26.19125732 60.01210449 27.13251465 60.08670898 28.10229492 60.16357422 C28.98119385 60.24236816 29.86009277 60.32116211 30.765625 60.40234375 C31.55743164 60.46929443 32.34923828 60.53624512 33.16503906 60.60522461 C33.77057617 60.73550049 34.37611328 60.86577637 35 61 C35.33 61.66 35.66 62.32 36 63 C23.46 63 10.92 63 -2 63 C-2.495 63.99 -2.495 63.99 -3 65 C-2.54177532 61.53058454 -2.10868317 58.32604951 -1 55 C-0.88408552 53.20596945 -0.82347129 51.40813644 -0.79467773 49.6105957 C-0.77473251 48.50968094 -0.75478729 47.40876617 -0.73423767 46.27449036 C-0.71752518 45.08691635 -0.70081268 43.89934235 -0.68359375 42.67578125 C-0.6524221 40.85097481 -0.6524221 40.85097481 -0.62062073 38.98930359 C-0.55515283 35.09709404 -0.49625285 31.20481615 -0.4375 27.3125 C-0.39431218 24.67642518 -0.3506978 22.04035731 -0.30664062 19.40429688 C-0.19947422 12.93627049 -0.09770255 6.46817589 0 0 Z " fill="#A5A397" transform="translate(15,36)"/>
<path d="M0 0 C6.27 0 12.54 0 19 0 C19.495 3.465 19.495 3.465 20 7 C20.81082031 7.20753906 21.62164062 7.41507813 22.45703125 7.62890625 C30.90298648 9.9788286 39.94577337 12.93450535 45.62182617 20.02636719 C47.56330729 24.21542654 47.37403811 27.89660951 47.29296875 32.45703125 C47.28872391 33.35999435 47.28447906 34.26295746 47.28010559 35.19328308 C47.26336311 38.0666635 47.22571916 40.93933291 47.1875 43.8125 C47.17244743 45.7649638 47.15876003 47.71743864 47.14648438 49.66992188 C47.11347408 54.44688697 47.06172235 59.22332309 47 64 C48.65 64 50.3 64 52 64 C52 64.33 52 64.66 52 65 C50.02 65 48.04 65 46 65 C46 51.47 46 37.94 46 24 C21.25 24 -3.5 24 -29 24 C-24.44310194 14.88620388 -17.93138539 12.02795439 -8.578125 8.6640625 C-5.94198264 7.98505614 -3.70953346 7.8732952 -1 8 C-0.67 5.36 -0.34 2.72 0 0 Z " fill="#B1A097" transform="translate(44,12)"/>
<path d="M0 0 C24.42 0 48.84 0 74 0 C74.020625 7.363125 74.04125 14.72625 74.0625 22.3125 C74.071604 24.63450439 74.08070801 26.95650879 74.09008789 29.34887695 C74.09300819 31.18701113 74.09555648 33.02514595 74.09765625 34.86328125 C74.10277222 35.81956421 74.10788818 36.77584717 74.11315918 37.7611084 C74.11334045 39.13099915 74.11334045 39.13099915 74.11352539 40.52856445 C74.115746 41.32132278 74.11796661 42.11408112 74.12025452 42.93086243 C73.92567118 46.2789253 73.21024806 47.79131519 70.82670593 50.15713501 C67.4902444 52.33233409 65.72321071 52.4962237 61.77270508 52.48583984 C60.5382515 52.4919931 59.30379791 52.49814636 58.03193665 52.50448608 C56.69446052 52.49069333 55.35699187 52.4761596 54.01953125 52.4609375 C52.64141513 52.45855155 51.26329571 52.45764807 49.88517761 52.4581604 C47.00437916 52.45503938 44.12408089 52.4385238 41.2434082 52.41162109 C37.5476664 52.37754579 33.85247099 52.36999557 30.15659046 52.37151146 C27.31445585 52.37096835 24.4724411 52.36001229 21.6303463 52.34550858 C20.26716709 52.33913891 18.90397431 52.33520128 17.54078102 52.33372116 C15.64017484 52.32939556 13.73961933 52.31032324 11.83911133 52.29052734 C10.75721024 52.28290375 9.67530914 52.27528015 8.56062317 52.26742554 C6 52 6 52 4 50 C4 48.68 4 47.36 4 46 C4.63091553 45.97494385 5.26183105 45.9498877 5.91186523 45.92407227 C8.75396825 45.80845863 11.59571083 45.68557684 14.4375 45.5625 C15.43072266 45.52318359 16.42394531 45.48386719 17.44726562 45.44335938 C18.86362305 45.38051758 18.86362305 45.38051758 20.30859375 45.31640625 C21.62041626 45.26141968 21.62041626 45.26141968 22.95874023 45.20532227 C24.9927402 45.21818934 24.9927402 45.21818934 26 44 C27.54815405 43.85518713 29.10228354 43.77297155 30.65625 43.71875 C31.59597656 43.68136719 32.53570312 43.64398438 33.50390625 43.60546875 C35.50130208 43.53515625 37.49869792 43.46484375 39.49609375 43.39453125 C40.43582031 43.35714844 41.37554687 43.31976563 42.34375 43.28125 C43.21193359 43.25095703 44.08011719 43.22066406 44.97460938 43.18945312 C46.9949413 43.21778499 46.9949413 43.21778499 48 42 C53.57410454 41.03525114 59.21672137 40.94752993 64.859375 40.97265625 C66.01405273 40.976604 67.16873047 40.98055176 68.35839844 40.98461914 C69.23012695 40.98969482 70.10185547 40.99477051 71 41 C71.05848483 36.66672416 71.09375916 32.33355115 71.125 28 C71.15013672 26.16888672 71.15013672 26.16888672 71.17578125 24.30078125 C71.18222656 23.10839844 71.18867187 21.91601562 71.1953125 20.6875 C71.20578613 19.59824219 71.21625977 18.50898437 71.22705078 17.38671875 C71.04527391 13.17753888 71.04527391 13.17753888 69 6 C61.74 6 54.48 6 47 6 C47 5.34 47 4.68 47 4 C46.34 4 45.68 4 45 4 C45 4.66 45 5.32 45 6 C39.74722834 8.2896697 35.49539995 8.08808919 30 7 C29.34 6.67 28.68 6.34 28 6 C28 5.34 28 4.68 28 4 C27.34 4 26.68 4 26 4 C25.67 4.99 25.34 5.98 25 7 C24.67 6.67 24.34 6.34 24 6 C22.58429877 5.91348389 21.164405 5.89295096 19.74609375 5.90234375 C18.46508789 5.90717773 18.46508789 5.90717773 17.15820312 5.91210938 C15.81145508 5.92467773 15.81145508 5.92467773 14.4375 5.9375 C13.53580078 5.94201172 12.63410156 5.94652344 11.70507812 5.95117188 C9.46998686 5.96299775 7.23502563 5.9794778 5 6 C4.67 4.68 4.34 3.36 4 2 C2.68 1.67 1.36 1.34 0 1 C0 0.67 0 0.34 0 0 Z " fill="#6A6864" transform="translate(16,36)"/>
<path d="M0 0 C25.74 0.33 51.48 0.66 78 1 C78 2.65 78 4.3 78 6 C76.33834793 7.66165207 74.3348397 7.11959725 72.11598206 7.12442017 C71.41827194 7.12082489 70.72056183 7.11722961 70.00170898 7.11352539 C68.90421326 7.11374443 68.90421326 7.11374443 67.7845459 7.1139679 C65.35503216 7.11326867 62.92559417 7.10547585 60.49609375 7.09765625 C58.81600486 7.0957921 57.13591543 7.09436819 55.45582581 7.09336853 C51.02526357 7.08954307 46.5947339 7.07971256 42.16418457 7.06866455 C37.64657024 7.05845103 33.12895066 7.05387104 28.61132812 7.04882812 C19.74087107 7.03809031 10.87043824 7.02101356 2 7 C0.5393715 4.35261084 0 3.10551666 0 0 Z " fill="#888787" transform="translate(13,99)"/>
<path d="M0 0 C-0.875 4.875 -0.875 4.875 -2 6 C-3.92217078 6.10445557 -5.84819819 6.13855137 -7.77319336 6.14526367 C-9.62532692 6.15483345 -9.62532692 6.15483345 -11.51487732 6.16459656 C-12.87319907 6.16612512 -14.23152134 6.16723914 -15.58984375 6.16796875 C-16.97367895 6.1711797 -18.3575138 6.17454365 -19.74134827 6.17805481 C-22.64585151 6.18405224 -25.55032498 6.18589409 -28.45483398 6.18530273 C-32.18202146 6.18520109 -35.90901853 6.19885272 -39.63616085 6.21607494 C-42.49541608 6.2271778 -45.35462503 6.22922247 -48.21389961 6.22869301 C-49.58825906 6.22987574 -50.96261961 6.23431388 -52.33695793 6.24202538 C-54.25708452 6.25178998 -56.17726662 6.24769215 -58.09741211 6.24291992 C-59.73836098 6.24505745 -59.73836098 6.24505745 -61.41246033 6.24723816 C-64 6 -64 6 -66 4 C-66 2.68 -66 1.36 -66 0 C-43.94353327 -1.28662723 -22.05646673 -1.28662723 0 0 Z " fill="#5E5A51" transform="translate(86,82)"/>
<path d="M0 0 C3.47914941 -0.02887814 6.95826831 -0.04675687 10.4375 -0.0625 C11.92733398 -0.07506836 11.92733398 -0.07506836 13.44726562 -0.08789062 C14.39150391 -0.09111328 15.33574219 -0.09433594 16.30859375 -0.09765625 C17.62041626 -0.10551147 17.62041626 -0.10551147 18.95874023 -0.11352539 C21 0 21 0 22 1 C22.09921828 2.59909915 22.13079864 4.20251451 22.1328125 5.8046875 C22.13474609 7.26841797 22.13474609 7.26841797 22.13671875 8.76171875 C22.13285156 9.78910156 22.12898438 10.81648438 22.125 11.875 C22.13080078 13.40447266 22.13080078 13.40447266 22.13671875 14.96484375 C22.13542969 15.94324219 22.13414063 16.92164062 22.1328125 17.9296875 C22.13168457 18.82929199 22.13055664 19.72889648 22.12939453 20.65576172 C22 23 22 23 21 26 C16.25 25.25 16.25 25.25 14 23 C13.42535915 15.87445347 13.42535915 15.87445347 15.4375 12.8125 C15.953125 12.214375 16.46875 11.61625 17 11 C17.33 9.35 17.66 7.7 18 6 C12.72 6 7.44 6 2 6 C2 8.31 2 10.62 2 13 C3.98 12.67 5.96 12.34 8 12 C7.38487182 17.00890086 6.7282448 22.00632136 6 27 C3.69 27 1.38 27 -1 27 C-1.02898816 23.06251542 -1.04679464 19.12505821 -1.0625 15.1875 C-1.07087891 14.06794922 -1.07925781 12.94839844 -1.08789062 11.79492188 C-1.09111328 10.72177734 -1.09433594 9.64863281 -1.09765625 8.54296875 C-1.10289307 7.55321045 -1.10812988 6.56345215 -1.11352539 5.54370117 C-1 3 -1 3 0 0 Z " fill="#F0EEE0" transform="translate(42,48)"/>
<path d="M0 0 C5.1665625 -0.0309375 5.1665625 -0.0309375 10.4375 -0.0625 C11.52474365 -0.071604 12.6119873 -0.08070801 13.73217773 -0.09008789 C15.00750366 -0.09383423 15.00750366 -0.09383423 16.30859375 -0.09765625 C17.62041626 -0.10551147 17.62041626 -0.10551147 18.95874023 -0.11352539 C21 0 21 0 22 1 C22.08700342 2.63472882 22.10701063 4.27314055 22.09765625 5.91015625 C22.09443359 6.89951172 22.09121094 7.88886719 22.08789062 8.90820312 C22.07951172 9.94912109 22.07113281 10.99003906 22.0625 12.0625 C22.05798828 13.10728516 22.05347656 14.15207031 22.04882812 15.22851562 C22.03699913 17.8190666 22.02051689 20.40950559 22 23 C20.125 24.0625 20.125 24.0625 18 25 C17.34 24.67 16.68 24.34 16 24 C15.94600264 22.54207116 15.90720823 21.08357288 15.875 19.625 C15.85179688 18.81289062 15.82859375 18.00078125 15.8046875 17.1640625 C16 15 16 15 18 13 C18.33 11.35 18.66 9.7 19 8 C13.72 8 8.44 8 3 8 C3 10.31 3 12.62 3 15 C4.98 14.67 6.96 14.34 9 14 C8.43393721 18.69023454 7.81462495 23.34500026 7 28 C4.69 28.33 2.38 28.66 0 29 C0 19.43 0 9.86 0 0 Z " fill="#F4F4E7" transform="translate(65,46)"/>
<path d="M0 0 C0.87454834 0.00523682 1.74909668 0.01047363 2.65014648 0.01586914 C3.50036377 0.0183667 4.35058105 0.02086426 5.2265625 0.0234375 C6.85742798 0.03709351 6.85742798 0.03709351 8.52124023 0.05102539 C11.96561523 0.07165039 15.40999023 0.09227539 18.95874023 0.11352539 C18.95874023 8.03352539 18.95874023 15.95352539 18.95874023 24.11352539 C17.30874023 24.11352539 15.65874023 24.11352539 13.95874023 24.11352539 C12.95874023 23.11352539 12.95874023 23.11352539 12.83374023 19.67602539 C12.95874023 16.11352539 12.95874023 16.11352539 13.95874023 14.11352539 C14.61874023 14.11352539 15.27874023 14.11352539 15.95874023 14.11352539 C15.95874023 12.13352539 15.95874023 10.15352539 15.95874023 8.11352539 C10.34874023 8.11352539 4.73874023 8.11352539 -1.04125977 8.11352539 C-1.04125977 10.42352539 -1.04125977 12.73352539 -1.04125977 15.11352539 C2.42374023 14.61852539 2.42374023 14.61852539 5.95874023 14.11352539 C5.65114846 16.0934608 5.33753343 18.07246138 5.02124023 20.05102539 C4.8472168 21.15317383 4.67319336 22.25532227 4.49389648 23.39086914 C3.95874023 26.11352539 3.95874023 26.11352539 2.95874023 27.11352539 C0.9591566 27.15433322 -1.04171231 27.15606895 -3.04125977 27.11352539 C-5.60273926 19.42908691 -4.46661406 9.03216034 -3.04125977 1.11352539 C-2.04125977 0.11352539 -2.04125977 0.11352539 0 0 Z " fill="#EAE9DA" transform="translate(21.041259765625,45.886474609375)"/>
<path d="M0 0 C6.17636031 2.91250524 10.40087634 6.10522075 14.234375 11.85546875 C14.47488403 13.77275085 14.47488403 13.77275085 14.46142578 15.9597168 C14.46127472 16.78034103 14.46112366 17.60096527 14.46096802 18.44645691 C14.45064545 19.327798 14.44032288 20.2091391 14.4296875 21.1171875 C14.4268576 22.0229805 14.42402771 22.9287735 14.42111206 23.86201477 C14.40991464 26.75580033 14.38481089 29.64927669 14.359375 32.54296875 C14.34934463 34.50455282 14.34021888 36.46614175 14.33203125 38.42773438 C14.30997673 43.23709835 14.27544989 48.04623112 14.234375 52.85546875 C15.884375 52.85546875 17.534375 52.85546875 19.234375 52.85546875 C19.234375 53.18546875 19.234375 53.51546875 19.234375 53.85546875 C17.254375 53.85546875 15.274375 53.85546875 13.234375 53.85546875 C13.234375 40.32546875 13.234375 26.79546875 13.234375 12.85546875 C-8.545625 12.85546875 -30.325625 12.85546875 -52.765625 12.85546875 C-51.765625 10.85546875 -51.765625 10.85546875 -50.05279541 10.23756409 C-47.38711378 9.79223456 -44.87468714 9.73585375 -42.17089844 9.74194336 C-41.05003845 9.74201889 -39.92917847 9.74209442 -38.77435303 9.74217224 C-37.57006653 9.74733353 -36.36578003 9.75249481 -35.125 9.7578125 C-33.88768127 9.75922745 -32.65036255 9.7606424 -31.37554932 9.76210022 C-28.09417559 9.76674765 -24.81285127 9.77572528 -21.53149414 9.7868042 C-18.17985489 9.79705355 -14.82821352 9.80152016 -11.4765625 9.80664062 C-4.90623069 9.8176685 1.66406811 9.83440579 8.234375 9.85546875 C0.71187792 2.17894586 -7.41910636 0.16636631 -17.765625 -2.14453125 C-12.01383768 -5.79624739 -5.79939587 -2.40003247 0 0 Z " fill="#D3D2D1" transform="translate(76.765625,23.14453125)"/>
<path d="M0 0 C2.73251347 1.99399631 3.83247946 3.1623973 4.5 6.5 C3.8438471 9.78076449 2.62114008 10.97797765 0 13 C-0.99 13 -1.98 13 -3 13 C-3 19.27 -3 25.54 -3 32 C-1.35 32 0.3 32 2 32 C2 33.98 2 35.96 2 38 C1.01 38.495 1.01 38.495 0 39 C0 37.35 0 35.7 0 34 C-0.66 34 -1.32 34 -2 34 C-2 35.65 -2 37.3 -2 39 C-4.97 39 -7.94 39 -11 39 C-11 36.03 -11 33.06 -11 30 C-9.35 30 -7.7 30 -6 30 C-5.505 21.09 -5.505 21.09 -5 12 C-5.99 11.67 -6.98 11.34 -8 11 C-9.41441874 8.17116253 -9.31900332 6.12623255 -9 3 C-6.31164707 0.01294119 -3.93697301 -0.68897028 0 0 Z " fill="#9E9897" transform="translate(102,47)"/>
<path d="M0 0 C1.41479159 0.40248382 2.83122486 0.79929184 4.25 1.1875 C5.1575 1.455625 6.065 1.72375 7 2 C7 2.33 7 2.66 7 3 C-12.8 3 -32.6 3 -53 3 C-50.35169316 1.67584658 -47.8675023 0.48934325 -45.125 -0.5625 C-44.48820312 -0.81128906 -43.85140625 -1.06007813 -43.1953125 -1.31640625 C-30.1474249 -5.37936057 -12.76815139 -4.39172993 0 0 Z " fill="#DC8443" transform="translate(76,29)"/>
<path d="M0 0 C20.79 0 41.58 0 63 0 C62.67 0.99 62.34 1.98 62 3 C56.06 3 50.12 3 44 3 C44 2.34 44 1.68 44 1 C42.35 1.33 40.7 1.66 39 2 C39 2.66 39 3.32 39 4 C33.74722834 6.2896697 29.49539995 6.08808919 24 5 C23.34 4.67 22.68 4.34 22 4 C22 3.34 22 2.68 22 2 C21.34 2 20.68 2 20 2 C19.67 2.99 19.34 3.98 19 5 C18.67 4.34 18.34 3.68 18 3 C12.06 3 6.12 3 0 3 C0 2.01 0 1.02 0 0 Z " fill="#424039" transform="translate(22,38)"/>
<path d="M0 0 C0.33 0 0.66 0 1 0 C1 16.83 1 33.66 1 51 C2.98 51 4.96 51 7 51 C7 52.32 7 53.64 7 55 C5.35 54.67 3.7 54.34 2 54 C1.67 55.32 1.34 56.64 1 58 C1.69480469 58.04898438 2.38960937 58.09796875 3.10546875 58.1484375 C6.73839847 58.41549697 10.36925557 58.70506558 14 59 C15.31701904 59.10465576 15.31701904 59.10465576 16.66064453 59.21142578 C19.52473443 59.44309096 22.38732985 59.68895282 25.25 59.9375 C26.19125732 60.01210449 27.13251465 60.08670898 28.10229492 60.16357422 C28.98119385 60.24236816 29.86009277 60.32116211 30.765625 60.40234375 C31.55743164 60.46929443 32.34923828 60.53624512 33.16503906 60.60522461 C33.77057617 60.73550049 34.37611328 60.86577637 35 61 C35.33 61.66 35.66 62.32 36 63 C23.46 63 10.92 63 -2 63 C-2.495 63.99 -2.495 63.99 -3 65 C-2.54177532 61.53058454 -2.10868317 58.32604951 -1 55 C-0.88408552 53.20596945 -0.82347129 51.40813644 -0.79467773 49.6105957 C-0.77473251 48.50968094 -0.75478729 47.40876617 -0.73423767 46.27449036 C-0.71752518 45.08691635 -0.70081268 43.89934235 -0.68359375 42.67578125 C-0.6524221 40.85097481 -0.6524221 40.85097481 -0.62062073 38.98930359 C-0.55515283 35.09709404 -0.49625285 31.20481615 -0.4375 27.3125 C-0.39431218 24.67642518 -0.3506978 22.04035731 -0.30664062 19.40429688 C-0.19947422 12.93627049 -0.09770255 6.46817589 0 0 Z " fill="#D9DDDA" transform="translate(15,36)"/>
<path d="M0 0 C5.61 0 11.22 0 17 0 C17 1.98 17 3.96 17 6 C16.01 6.33 15.02 6.66 14 7 C11.95869402 11.08261196 12.98902742 15.70336653 14 20 C11.03 20 8.06 20 5 20 C4.92345464 15.48382401 4.89771304 11.40914783 6 7 C4.02 7 2.04 7 0 7 C0 4.69 0 2.38 0 0 Z " fill="#F40000" transform="translate(20,54)"/>
<path d="M0 0 C5.28 0 10.56 0 16 0 C16 5 16 5 14.51171875 6.953125 C12.50543152 9.66964828 12.69348224 11.41750272 12.8125 14.75 C12.83957031 15.73484375 12.86664063 16.7196875 12.89453125 17.734375 C12.92933594 18.48203125 12.96414062 19.2296875 13 20 C10.36 20 7.72 20 5 20 C5 15.71 5 11.42 5 7 C3.35 7 1.7 7 0 7 C0 4.69 0 2.38 0 0 Z " fill="#C71919" transform="translate(44,54)"/>
<path d="M0 0 C5.28 0 10.56 0 16 0 C16 5 16 5 14.51171875 6.953125 C12.50543152 9.66964828 12.69348224 11.41750272 12.8125 14.75 C12.83957031 15.73484375 12.86664063 16.7196875 12.89453125 17.734375 C12.92933594 18.48203125 12.96414062 19.2296875 13 20 C10.36 20 7.72 20 5 20 C5 15.71 5 11.42 5 7 C3.35 7 1.7 7 0 7 C0 4.69 0 2.38 0 0 Z " fill="#ED0101" transform="translate(68,54)"/>
<path d="M0 0 C10.48272435 0.43298209 20.78808093 1.14182641 31.19140625 2.5234375 C41.20269389 3.77613195 51.17341288 4.08894781 61.25 4.125 C62.6270813 4.13200928 62.6270813 4.13200928 64.03198242 4.13916016 C64.89283447 4.13706543 65.75368652 4.1349707 66.640625 4.1328125 C67.79353027 4.13112061 67.79353027 4.13112061 68.96972656 4.12939453 C71.20431343 4.0736999 71.20431343 4.0736999 74 3 C74.33 2.01 74.66 1.02 75 0 C76.65 0 78.3 0 80 0 C78.68 0.33 77.36 0.66 76 1 C76.309375 2.3921875 76.309375 2.3921875 76.625 3.8125 C77 7 77 7 75 10 C75 9.01 75 8.02 75 7 C51.9 7 28.8 7 5 7 C5 6.67 5 6.34 5 6 C14.57 5.67 24.14 5.34 34 5 C24.68154314 4.05507563 24.68154314 4.05507563 15.36254883 3.11547852 C14.19747803 2.99615967 13.03240723 2.87684082 11.83203125 2.75390625 C10.64327393 2.63345947 9.4545166 2.5130127 8.22973633 2.38891602 C5.4410355 2.05310829 2.74231963 1.59910528 0 1 C0 0.67 0 0.34 0 0 Z " fill="#AAACAA" transform="translate(16,93)"/>
<path d="M0 0 C0.65880661 0.02361099 1.31761322 0.04722198 1.99638367 0.07154846 C4.08507697 0.14766298 6.17334949 0.23190854 8.26171875 0.31640625 C9.68422472 0.36967938 11.10675076 0.42241936 12.52929688 0.47460938 C16.00285784 0.60320619 19.47608909 0.73909336 22.94921875 0.87890625 C22.61921875 1.86890625 22.28921875 2.85890625 21.94921875 3.87890625 C1.48921875 3.87890625 -18.97078125 3.87890625 -40.05078125 3.87890625 C-40.38078125 2.88890625 -40.71078125 1.89890625 -41.05078125 0.87890625 C-40.19846924 0.88414307 -39.34615723 0.88937988 -38.46801758 0.89477539 C-35.29044852 0.91186957 -32.112903 0.92438187 -28.93530273 0.93383789 C-27.56289903 0.93885079 -26.19050063 0.94566283 -24.81811523 0.9543457 C-22.83970474 0.96654482 -20.86125445 0.97162873 -18.8828125 0.9765625 C-17.09967651 0.98441772 -17.09967651 0.98441772 -15.28051758 0.99243164 C-12.15538533 0.97301914 -12.15538533 0.97301914 -9.56445312 0.36523438 C-6.31390833 -0.26365891 -3.30707631 -0.12665399 0 0 Z " fill="#42403C" transform="translate(62.05078125,84.12109375)"/>
<path d="M0 0 C24.42 0 48.84 0 74 0 C74 2.64 74 5.28 74 8 C72.62437146 6.71034824 71.29233607 5.37310707 70 4 C70 3.34 70 2.68 70 2 C48.88 2 27.76 2 6 2 C6 2.99 6 3.98 6 5 C11.94 5 17.88 5 24 5 C24 5.33 24 5.66 24 6 C17.73 6 11.46 6 5 6 C4.67 4.68 4.34 3.36 4 2 C2.68 1.67 1.36 1.34 0 1 C0 0.67 0 0.34 0 0 Z " fill="#7B7B77" transform="translate(16,36)"/>
<path d="M0 0 C-3.42328747 1.14109582 -4.06602175 0.84733551 -7.3125 -0.375 C-21.15309353 -5.54408729 -39.11509018 -4.54201287 -53 0 C-54.66235003 0.35423336 -56.32817274 0.69359749 -58 1 C-44.31704257 -14.39332711 -15.37709907 -10.01299474 0 0 Z " fill="#F7A38C" transform="translate(82,30)"/>
<path d="M0 0 C0.89094864 -0.00315216 1.78189728 -0.00630432 2.69984436 -0.009552 C4.13124001 -0.00651566 4.13124001 -0.00651566 5.59155273 -0.00341797 C6.57759995 -0.00437469 7.56364716 -0.00533142 8.57957458 -0.00631714 C10.66161157 -0.00699697 12.74365069 -0.00515638 14.82568359 -0.00097656 C18.01656843 0.00438013 21.20731287 -0.00093115 24.39819336 -0.00732422 C26.42098013 -0.00666351 28.44376681 -0.00538251 30.46655273 -0.00341797 C31.42284073 -0.0054422 32.37912872 -0.00746643 33.36439514 -0.009552 C34.25219162 -0.00639984 35.1399881 -0.00324768 36.0546875 0 C36.83538101 0.00079559 37.61607452 0.00159119 38.42042542 0.00241089 C40.46264648 0.12939453 40.46264648 0.12939453 43.46264648 1.12939453 C43.46264648 1.78939453 43.46264648 2.44939453 43.46264648 3.12939453 C25.97264648 3.12939453 8.48264648 3.12939453 -9.53735352 3.12939453 C-8.53735352 1.12939453 -8.53735352 1.12939453 -6.75843811 0.51248169 C-4.45922281 0.11591874 -2.33265365 0.00237475 0 0 Z " fill="#BDBEBB" transform="translate(33.537353515625,32.87060546875)"/>
<path d="M0 0 C0.66 0 1.32 0 2 0 C2 0.66 2 1.32 2 2 C9.59 1.67 17.18 1.34 25 1 C25.495 3.97 25.495 3.97 26 7 C18.74 6.67 11.48 6.34 4 6 C4 13.92 4 21.84 4 30 C3.67 30 3.34 30 3 30 C2.67 21.42 2.34 12.84 2 4 C0.68 4.33 -0.64 4.66 -2 5 C-3.41534778 5.06456879 -4.83337689 5.08611039 -6.25 5.0625 C-8.10625 5.0315625 -8.10625 5.0315625 -10 5 C-6.73454239 3.11608215 -3.71888239 2.50712033 0 2 C0 1.34 0 0.68 0 0 Z " fill="#AFAB9B" transform="translate(61,40)"/>
<path d="M0 0 C30.195 0.495 30.195 0.495 61 1 C61 1.33 61 1.66 61 2 C48.13208821 2.9411922 35.33611947 3.12290707 22.4375 3.0625 C20.53971474 3.05746781 18.64192817 3.05290798 16.74414062 3.04882812 C12.16272706 3.03797514 7.58137871 3.02080844 3 3 C3 3.66 3 4.32 3 5 C4.32 5.33 5.64 5.66 7 6 C2.71 5.67 -1.58 5.34 -6 5 C-5.67 3.68 -5.34 2.36 -5 1 C-2.525 1.99 -2.525 1.99 0 3 C0 2.01 0 1.02 0 0 Z " fill="#949693" transform="translate(22,88)"/>
<path d="M0 0 C0.33 0 0.66 0 1 0 C1.25 7.625 1.25 7.625 -1 11 C-3.00512695 11.43237305 -3.00512695 11.43237305 -5.48828125 11.51171875 C-6.41310303 11.54724854 -7.3379248 11.58277832 -8.29077148 11.61938477 C-9.7865271 11.65310181 -9.7865271 11.65310181 -11.3125 11.6875 C-12.83822632 11.73765259 -12.83822632 11.73765259 -14.39477539 11.78881836 C-24.59497623 12.09223158 -34.79664252 12.09476803 -45 12 C-45 11.34 -45 10.68 -45 10 C-44.05362671 9.96241577 -44.05362671 9.96241577 -43.08813477 9.92407227 C-40.24603175 9.80845863 -37.40428917 9.68557684 -34.5625 9.5625 C-33.56927734 9.52318359 -32.57605469 9.48386719 -31.55273438 9.44335938 C-30.13637695 9.38051758 -30.13637695 9.38051758 -28.69140625 9.31640625 C-27.81685791 9.27974854 -26.94230957 9.24309082 -26.04125977 9.20532227 C-24.0072598 9.21818934 -24.0072598 9.21818934 -23 8 C-15.41353691 6.68695831 -7.66827809 6.8918268 0 7 C0 4.69 0 2.38 0 0 Z " fill="#777368" transform="translate(87,70)"/>
<path d="M0 0 C0.33 0 0.66 0 1 0 C1.02932572 3.18748029 1.04690739 6.37492528 1.0625 9.5625 C1.07087891 10.45775391 1.07925781 11.35300781 1.08789062 12.27539062 C1.09272461 13.59506836 1.09272461 13.59506836 1.09765625 14.94140625 C1.10551147 16.14325562 1.10551147 16.14325562 1.11352539 17.36938477 C0.97419425 20.59797183 0.45701614 23.80088702 0 27 C-10.89 27.495 -10.89 27.495 -22 28 C-21.67 26.68 -21.34 25.36 -21 24 C-19.02 24 -17.04 24 -15 24 C-15 22.02 -15 20.04 -15 18 C-14.67 18 -14.34 18 -14 18 C-14 19.98 -14 21.96 -14 24 C-11.36 24 -8.72 24 -6 24 C-6.33 23.01 -6.66 22.02 -7 21 C-7.12781786 18.32605036 -7.04391871 15.67904143 -7 13 C-6.67 13 -6.34 13 -6 13 C-6 15.31 -6 17.62 -6 20 C-4.35 19.67 -2.7 19.34 -1 19 C-0.67 12.73 -0.34 6.46 0 0 Z " fill="#A19D91" transform="translate(87,50)"/>
<path d="M0 0 C0.33 0 0.66 0 1 0 C1 2.97 1 5.94 1 9 C2.65 9 4.3 9 6 9 C6 9.33 6 9.66 6 10 C4.02 10 2.04 10 0 10 C-0.33 10.99 -0.66 11.98 -1 13 C-3.45275141 14.2263757 -5.0505781 14.11415314 -7.7890625 14.09765625 C-8.73007813 14.09443359 -9.67109375 14.09121094 -10.640625 14.08789062 C-11.62546875 14.07951172 -12.6103125 14.07113281 -13.625 14.0625 C-15.11386719 14.05573242 -15.11386719 14.05573242 -16.6328125 14.04882812 C-19.0886016 14.03702145 -21.54427104 14.020554 -24 14 C-24 13.67 -24 13.34 -24 13 C-38.19 12.67 -52.38 12.34 -67 12 C-67 11.67 -67 11.34 -67 11 C-66.24244919 10.99413376 -65.48489838 10.98826752 -64.70439148 10.98222351 C-57.5677729 10.92433762 -50.4315051 10.8522853 -43.29519939 10.76428509 C-39.62626526 10.71954286 -35.95744315 10.68029566 -32.28833008 10.65356445 C-28.74789938 10.62756926 -25.20789888 10.58719483 -21.66773415 10.53681374 C-19.65868965 10.51199022 -17.64947883 10.50209019 -15.64030457 10.49235535 C-14.41926529 10.47256119 -13.19822601 10.45276703 -11.94018555 10.43237305 C-10.86318893 10.42126999 -9.78619232 10.41016693 -8.67655945 10.39872742 C-5.64600161 9.94726481 -4.93068323 9.26829726 -3 7 C-2.34 7 -1.68 7 -1 7 C-0.67 4.69 -0.34 2.38 0 0 Z " fill="#888886" transform="translate(90,77)"/>
<path d="M0 0 C2.77389443 2.02419323 3.85519403 3.15185077 4.4375 6.5625 C4 9 4 9 3 10.8125 C-0.36126578 12.80825156 -3.13835515 12.3677757 -7 12 C-9.31361802 8.52957297 -9.51020728 7.08165827 -9 3 C-6.31164707 0.01294119 -3.93697301 -0.68897028 0 0 Z " fill="#E75654" transform="translate(102,47)"/>
<path d="M0 0 C5.94 0 11.88 0 18 0 C18 2.31 18 4.62 18 7 C12.06 7.33 6.12 7.66 0 8 C0 5.36 0 2.72 0 0 Z " fill="#834543" transform="translate(44,12)"/>
<path d="M0 0 C1.4783226 2.95664519 1.06032783 5.74229737 1 9 C3.475 9.495 3.475 9.495 6 10 C6 12.31 6 14.62 6 17 C-1.26 17 -8.52 17 -16 17 C-16.33 14.69 -16.66 12.38 -17 10 C-16.67 10.99 -16.34 11.98 -16 13 C-12.535 12.505 -12.535 12.505 -9 12 C-9 12.66 -9 13.32 -9 14 C-6.03 14 -3.06 14 0 14 C-0.33 13.29875 -0.66 12.5975 -1 11.875 C-2.11142813 8.67964413 -2.29224491 6.36081648 -2 3 C-1.34 2.01 -0.68 1.02 0 0 Z " fill="#A8A799" transform="translate(34,60)"/>
<path d="M0 0 C0 0.33 0 0.66 0 1 C-13.86 1 -27.72 1 -42 1 C-33.02818139 -7.97181861 -11.0520843 -2.53654394 0 0 Z " fill="#D9993D" transform="translate(73,31)"/>
<path d="M0 0 C0 6.27 0 12.54 0 19 C-1.65 19 -3.3 19 -5 19 C-6 18 -6 18 -6.125 14.5625 C-6 11 -6 11 -5 9 C-4.34 9 -3.68 9 -3 9 C-3 6.69 -3 4.38 -3 2 C-7.95 2 -12.9 2 -18 2 C-12.00366007 -0.99816996 -6.67257166 -0.12356614 0 0 Z " fill="#F3F4E6" transform="translate(40,51)"/>
<path d="M0 0 C0 5.61 0 11.22 0 17 C-1.98 17.99 -1.98 17.99 -4 19 C-4.66 18.67 -5.32 18.34 -6 18 C-6.05399736 16.54207116 -6.09279177 15.08357288 -6.125 13.625 C-6.14820312 12.81289062 -6.17140625 12.00078125 -6.1953125 11.1640625 C-6 9 -6 9 -4 7 C-3.67 5.35 -3.34 3.7 -3 2 C-8.28 2 -13.56 2 -19 2 C-19 1.67 -19 1.34 -19 1 C-12.60627583 0.03490956 -6.46788758 -0.08084859 0 0 Z " fill="#DEDBCC" transform="translate(87,52)"/>
<path d="M0 0 C0.33 0 0.66 0 1 0 C1 16.83 1 33.66 1 51 C2.98 51 4.96 51 7 51 C7 52.32 7 53.64 7 55 C5.35 54.67 3.7 54.34 2 54 C1.67 55.32 1.34 56.64 1 58 C5.29 58.33 9.58 58.66 14 59 C14 59.33 14 59.66 14 60 C9.38 60 4.76 60 0 60 C0 40.2 0 20.4 0 0 Z " fill="#C8C9C7" transform="translate(15,36)"/>
<path d="M0 0 C0.33 0 0.66 0 1 0 C1 1.98 1 3.96 1 6 C3.64 6 6.28 6 9 6 C9.33 5.34 9.66 4.68 10 4 C11.65 4.66 13.3 5.32 15 6 C15.33 5.01 15.66 4.02 16 3 C15.67 5.31 15.34 7.62 15 10 C7.74 10 0.48 10 -7 10 C-7 9.01 -7 8.02 -7 7 C-4.69 7 -2.38 7 0 7 C0 4.69 0 2.38 0 0 Z " fill="#A3A093" transform="translate(48,68)"/>
<path d="M0 0 C0.87454834 0.00523682 1.74909668 0.01047363 2.65014648 0.01586914 C3.59438477 0.0190918 4.53862305 0.02231445 5.51147461 0.02563477 C6.50469727 0.03401367 7.49791992 0.04239258 8.52124023 0.05102539 C9.51833008 0.05553711 10.51541992 0.06004883 11.54272461 0.06469727 C14.01478872 0.07652532 16.48673541 0.0930069 18.95874023 0.11352539 C18.95874023 1.76352539 18.95874023 3.41352539 18.95874023 5.11352539 C18.39888428 5.10828857 17.83902832 5.10305176 17.26220703 5.09765625 C14.72356287 5.07685848 12.18493664 5.06385635 9.64624023 5.05102539 C8.76516602 5.04264648 7.8840918 5.03426758 6.97631836 5.02563477 C6.12875977 5.02241211 5.28120117 5.01918945 4.40795898 5.01586914 C3.23753052 5.00801392 3.23753052 5.00801392 2.04345703 5 C-0.23741526 5.03214676 -0.23741526 5.03214676 -3.04125977 6.11352539 C-3.08398077 4.44740634 -3.08189809 2.77969654 -3.04125977 1.11352539 C-2.04125977 0.11352539 -2.04125977 0.11352539 0 0 Z " fill="#E2DFCA" transform="translate(21.041259765625,45.886474609375)"/>
<path d="M0 0 C5.61 0 11.22 0 17 0 C17 1.98 17 3.96 17 6 C16.34 6 15.68 6 15 6 C15 4.68 15 3.36 15 2 C13.02 2.33 11.04 2.66 9 3 C8.67 4.32 8.34 5.64 8 7 C5.36 7 2.72 7 0 7 C0 4.69 0 2.38 0 0 Z " fill="#C52D2C" transform="translate(20,54)"/>
<path d="M0 0 C6.93 0 13.86 0 21 0 C21 1.32 21 2.64 21 4 C14.07 4 7.14 4 0 4 C-0.33 4.99 -0.66 5.98 -1 7 C-0.67 4.69 -0.34 2.38 0 0 Z " fill="#CFCAB7" transform="translate(42,44)"/>
<path d="M0 0 C0.66 0 1.32 0 2 0 C3.85776765 3.13498292 4.20140476 5.37471432 4 9 C-1.59306069 11.05459372 -4.40693931 11.05459372 -10 9 C-10 8.01 -10 7.02 -10 6 C-8.02 6 -6.04 6 -4 6 C-3.67 5.34 -3.34 4.68 -3 4 C-2.01 4.33 -1.02 4.66 0 5 C0 3.35 0 1.7 0 0 Z " fill="#727272" transform="translate(100,81)"/>
<path d="M0 0 C6.93 0 13.86 0 21 0 C21.33 1.65 21.66 3.3 22 5 C14.74 4.34 7.48 3.68 0 3 C0 2.01 0 1.02 0 0 Z " fill="#D0CCB8" transform="translate(65,46)"/>
<path d="M0 0 C2.05078125 0.03255208 4.1015625 0.06510417 6.15234375 0.09765625 C5.65503723 5.07072141 4.59932041 8.73565438 2.15234375 13.09765625 C1.16234375 12.76765625 0.17234375 12.43765625 -0.84765625 12.09765625 C-0.97265625 5.47265625 -0.97265625 5.47265625 0.15234375 2.09765625 C-0.83765625 1.76765625 -1.82765625 1.43765625 -2.84765625 1.09765625 C-1.84765625 0.09765625 -1.84765625 0.09765625 0 0 Z " fill="#F80101" transform="translate(51.84765625,55.90234375)"/>
<path d="M0 0 C0.33 0 0.66 0 1 0 C1.02900455 3.6041498 1.04680018 7.20826962 1.0625 10.8125 C1.07087891 11.83666016 1.07925781 12.86082031 1.08789062 13.91601562 C1.09111328 14.89892578 1.09433594 15.88183594 1.09765625 16.89453125 C1.10289307 17.80050049 1.10812988 18.70646973 1.11352539 19.63989258 C1 22 1 22 0 25 C-4.75 24.25 -4.75 24.25 -7 22 C-7.57416268 14.76555024 -7.57416268 14.76555024 -5.5 12 C-5.005 11.67 -4.51 11.34 -4 11 C-4.33 12.98 -4.66 14.96 -5 17 C-4.34 17.33 -3.68 17.66 -3 18 C-3.99 18 -4.98 18 -6 18 C-6 18.66 -6 19.32 -6 20 C-4.02 20 -2.04 20 0 20 C0 13.4 0 6.8 0 0 Z " fill="#D2CEC0" transform="translate(63,49)"/>
<path d="M0 0 C5.28 0 10.56 0 16 0 C16 1.65 16 3.3 16 5 C15.67 3.68 15.34 2.36 15 1 C12.36 1.66 9.72 2.32 7 3 C7.33 4.32 7.66 5.64 8 7 C5.33333333 7 2.66666667 7 0 7 C0 4.69 0 2.38 0 0 Z " fill="#BC201F" transform="translate(68,54)"/>
<path d="M0 0 C0.33 0 0.66 0 1 0 C1.125 7.75 1.125 7.75 0 10 C-7.26 10 -14.52 10 -22 10 C-22 9.34 -22 8.68 -22 8 C-14.63512596 7.00137301 -7.42686315 6.89668969 0 7 C0 4.69 0 2.38 0 0 Z " fill="#898579" transform="translate(87,70)"/>
<path d="M0 0 C6.93 0 13.86 0 21 0 C21 0.99 21 1.98 21 3 C10.11 3.495 10.11 3.495 -1 4 C-0.67 2.68 -0.34 1.36 0 0 Z " fill="#C1BDAB" transform="translate(19,43)"/>
<path d="M0 0 C2.64 0 5.28 0 8 0 C7.67 2.97 7.34 5.94 7 9 C4.69 9 2.38 9 0 9 C0 6.03 0 3.06 0 0 Z " fill="#E8E8D6" transform="translate(41,66)"/>
<path d="M0 0 C0.33 0 0.66 0 1 0 C1 5.61 1 11.22 1 17 C-0.98 17 -2.96 17 -5 17 C-4.34 14.03 -3.68 11.06 -3 8 C-2.34 8 -1.68 8 -1 8 C-1.020625 6.865625 -1.04125 5.73125 -1.0625 4.5625 C-1 1 -1 1 0 0 Z " fill="#F9FAEC" transform="translate(62,52)"/>
<path d="M0 0 C-0.33 2.64 -0.66 5.28 -1 8 C-3.31 8.33 -5.62 8.66 -8 9 C-8 6.36 -8 3.72 -8 1 C-5.07175348 0.02391783 -3.04386724 -0.08226668 0 0 Z " fill="#E4E5D3" transform="translate(73,66)"/>
<path d="M0 0 C6.27 0 12.54 0 19 0 C18.67 0.99 18.34 1.98 18 3 C12.06 3 6.12 3 0 3 C0 2.01 0 1.02 0 0 Z " fill="#3B3A35" transform="translate(66,38)"/>
<path d="M0 0 C7.65606218 -0.19355213 14.66258031 -0.3479743 22 2 C22 2.33 22 2.66 22 3 C15.07 3 8.14 3 1 3 C0.67 2.01 0.34 1.02 0 0 Z " fill="#EDEDD9" transform="translate(65,49)"/>
<path d="M0 0 C2.91227269 3.28804981 4.49701212 5.59885603 5 10 C4.01 10.66 3.02 11.32 2 12 C1.34 9.36 0.68 6.72 0 4 C-7.26 4 -14.52 4 -22 4 C-21.67 3.01 -21.34 2.02 -21 1 C-20.34 1 -19.68 1 -19 1 C-19 1.66 -19 2.32 -19 3 C-13.06 3 -7.12 3 -1 3 C-0.67 2.01 -0.34 1.02 0 0 Z " fill="#7A786D" transform="translate(85,38)"/>
<path d="M0 0 C2.97 0 5.94 0 9 0 C9 2.31 9 4.62 9 7 C6.36 6.67 3.72 6.34 1 6 C0.67 4.02 0.34 2.04 0 0 Z " fill="#6B4944" transform="translate(53,12)"/>
<path d="M0 0 C0.33 0 0.66 0 1 0 C1.02909763 3.24998112 1.04683161 6.49992857 1.0625 9.75 C1.07087891 10.67039062 1.07925781 11.59078125 1.08789062 12.5390625 C1.09111328 13.42851563 1.09433594 14.31796875 1.09765625 15.234375 C1.10289307 16.05131836 1.10812988 16.86826172 1.11352539 17.70996094 C1.00299021 19.93968135 0.62055567 21.86133755 0 24 C-2.375 24.1875 -2.375 24.1875 -5 24 C-7.67927341 19.98108988 -7.15601248 17.75838077 -7 13 C-6.67 13 -6.34 13 -6 13 C-6 15.31 -6 17.62 -6 20 C-4.35 19.67 -2.7 19.34 -1 19 C-0.67 12.73 -0.34 6.46 0 0 Z " fill="#B9B6A9" transform="translate(87,50)"/>
<path d="M0 0 C0.33 0 0.66 0 1 0 C1 2.97 1 5.94 1 9 C2.98 8.67 4.96 8.34 7 8 C7.33 9.65 7.66 11.3 8 13 C5.03 13 2.06 13 -1 13 C-1.07654536 8.48382401 -1.10228696 4.40914783 0 0 Z " fill="#B51F1E" transform="translate(26,61)"/>
<path d="M0 0 C-1.75 5.75 -1.75 5.75 -4 8 C-5.9375 7.375 -5.9375 7.375 -8 6 C-8.75 2.875 -8.75 2.875 -9 0 C-2.25 -1.125 -2.25 -1.125 0 0 Z " fill="#EEEFDF" transform="translate(27,61)"/>
<path d="M0 0 C1.32 0 2.64 0 4 0 C4 0.66 4 1.32 4 2 C6.97 2.495 6.97 2.495 10 3 C10 3.33 10 3.66 10 4 C7.36 4 4.72 4 2 4 C1.67 11.92 1.34 19.84 1 28 C0.67 28 0.34 28 0 28 C0 18.76 0 9.52 0 0 Z " fill="#A19E8F" transform="translate(40,40)"/>
<path d="M0 0 C1.67542976 0.28604898 3.34385343 0.61781233 5 1 C4.67 1.66 4.34 2.32 4 3 C-0.3225069 4.01741458 -4.50393279 4.11723924 -8.9296875 4.09765625 C-10.21875 4.09443359 -11.5078125 4.09121094 -12.8359375 4.08789062 C-14.18229236 4.07953733 -15.52864652 4.07107241 -16.875 4.0625 C-18.24479004 4.0574783 -19.61458185 4.05291657 -20.984375 4.04882812 C-24.3229619 4.03707254 -27.66145815 4.02063964 -31 4 C-31 3.34 -31 2.68 -31 2 C-30.09644775 1.97494385 -29.19289551 1.9498877 -28.26196289 1.92407227 C-24.9203572 1.82912683 -21.57893748 1.72988379 -18.23754883 1.62768555 C-16.7893576 1.5842837 -15.34111346 1.54261256 -13.89282227 1.50268555 C-11.81510441 1.44510938 -9.73765427 1.38137972 -7.66015625 1.31640625 C-6.40855713 1.27974854 -5.15695801 1.24309082 -3.86743164 1.20532227 C-1.10369496 1.32196094 -1.10369496 1.32196094 0 0 Z " fill="#504C44" transform="translate(51,82)"/>
<path d="M0 0 C1.4783226 2.95664519 1.06032783 5.74229737 1 9 C2.65 9.33 4.3 9.66 6 10 C6 11.65 6 13.3 6 15 C4.35 15 2.7 15 1 15 C-1.39966487 10.80058648 -2.53946183 7.85515649 -2 3 C-1.34 2.01 -0.68 1.02 0 0 Z " fill="#CDBDB1" transform="translate(34,60)"/>
<path d="M0 0 C0.33 0 0.66 0 1 0 C1 1.65 1 3.3 1 5 C3.86724686 4.42655063 4.8614515 4.1385485 7 2 C7.33 4.64 7.66 7.28 8 10 C5.36 10 2.72 10 0 10 C0 6.7 0 3.4 0 0 Z " fill="#B91212" transform="translate(73,64)"/>
<path d="M0 0 C1.8125 2 1.8125 2 3 4 C2.01 5.485 2.01 5.485 1 7 C-2.125 7.1875 -2.125 7.1875 -5 7 C-5 5.68 -5 4.36 -5 3 C-5.66 2.34 -6.32 1.68 -7 1 C-4.4254716 -0.2872642 -2.85291355 -0.34791629 0 0 Z " fill="#F36D68" transform="translate(102,47)"/>
<path d="M0 0 C0.66 0 1.32 0 2 0 C1.67 1.65 1.34 3.3 1 5 C3.64 5 6.28 5 9 5 C8.360625 5.309375 7.72125 5.61875 7.0625 5.9375 C5.06389179 6.8345163 5.06389179 6.8345163 4 8 C2.48071962 8.07179964 0.95832518 8.08392007 -0.5625 8.0625 C-1.38878906 8.05347656 -2.21507812 8.04445313 -3.06640625 8.03515625 C-3.70449219 8.02355469 -4.34257812 8.01195312 -5 8 C-2.25 2.25 -2.25 2.25 0 0 Z " fill="#DDDCDA" transform="translate(20,28)"/>
<path d="M0 0 C1.32 0 2.64 0 4 0 C5.4783226 2.95664519 5.06032783 5.74229737 5 9 C3.35 9 1.7 9 0 9 C0 6.03 0 3.06 0 0 Z " fill="#A3A7A9" transform="translate(91,77)"/>
<path d="M0 0 C5.28 0 10.56 0 16 0 C15.01 0.495 15.01 0.495 14 1 C14 1.66 14 2.32 14 3 C7.375 5.125 7.375 5.125 4 4 C4 3.34 4 2.68 4 2 C3.01 1.67 2.02 1.34 1 1 C0.67 1.66 0.34 2.32 0 3 C0 2.01 0 1.02 0 0 Z " fill="#816F41" transform="translate(47,39)"/>
<path d="M0 0 C1.26328125 0.01804688 2.5265625 0.03609375 3.828125 0.0546875 C4.79234375 0.07789063 5.7565625 0.10109375 6.75 0.125 C6.42 2.435 6.09 4.745 5.75 7.125 C5.57726562 6.48046875 5.40453125 5.8359375 5.2265625 5.171875 C3.82017372 2.72054118 3.82017372 2.72054118 0.2734375 2.515625 C-1.108573 2.44918219 -2.4916781 2.4030748 -3.875 2.375 C-4.58140625 2.34535156 -5.2878125 2.31570312 -6.015625 2.28515625 C-7.75980047 2.21444643 -9.50490827 2.16745965 -11.25 2.125 C-7.54583874 -0.25090142 -4.32015427 -0.08000286 0 0 Z " fill="#FCFCED" transform="translate(33.25,50.875)"/>
<path d="M0 0 C6.93 0.33 13.86 0.66 21 1 C21.33 1.66 21.66 2.32 22 3 C16.72 3 11.44 3 6 3 C6 2.67 6 2.34 6 2 C3.03 1.505 3.03 1.505 0 1 C0 0.67 0 0.34 0 0 Z " fill="#C6CAC6" transform="translate(29,96)"/>
<path d="M0 0 C0.66 0 1.32 0 2 0 C2.36075949 4.44936709 2.36075949 4.44936709 0.8125 6.8125 C-1.55982525 8.36678206 -3.22041345 8.22537188 -6 8 C-6 6.68 -6 5.36 -6 4 C-4.35 4 -2.7 4 -1 4 C-0.67 2.68 -0.34 1.36 0 0 Z " fill="#D44B4A" transform="translate(104,51)"/>
<path d="M0 0 C2.33294775 -0.04241723 4.66702567 -0.04092937 7 0 C7.33 0.33 7.66 0.66 8 1 C9.51928038 1.07179964 11.04167482 1.08392007 12.5625 1.0625 C13.38878906 1.05347656 14.21507812 1.04445312 15.06640625 1.03515625 C16.02353516 1.01775391 16.02353516 1.01775391 17 1 C17 1.33 17 1.66 17 2 C15.02 2 13.04 2 11 2 C11 2.66 11 3.32 11 4 C11.99 4.33 12.98 4.66 14 5 C6.25 4.125 6.25 4.125 4 3 C4 2.34 4 1.68 4 1 C3.34 1 2.68 1 2 1 C1.67 1.99 1.34 2.98 1 4 C0.67 2.68 0.34 1.36 0 0 Z " fill="#5D543C" transform="translate(40,39)"/>
<path d="M0 0 C0.66 0.33 1.32 0.66 2 1 C1.67 2.98 1.34 4.96 1 7 C-1.31 6.34 -3.62 5.68 -6 5 C-6 4.01 -6 3.02 -6 2 C-4.02 2 -2.04 2 0 2 C0 1.34 0 0.68 0 0 Z " fill="#616160" transform="translate(96,85)"/>
<path d="M0 0 C0.33 0.66 0.66 1.32 1 2 C4.02934491 2.65772428 4.02934491 2.65772428 7 3 C7.33 2.34 7.66 1.68 8 1 C8.042721 2.66611905 8.04063832 4.33382885 8 6 C7 7 7 7 3.9375 7.0625 C2.968125 7.041875 1.99875 7.02125 1 7 C0.67 4.69 0.34 2.38 0 0 Z " fill="#CFD0C0" transform="translate(17,66)"/>
<path d="M0 0 C3.96 0.33 7.92 0.66 12 1 C11.67 1.66 11.34 2.32 11 3 C5.06 3 -0.88 3 -7 3 C-7 2.67 -7 2.34 -7 2 C-3.535 1.505 -3.535 1.505 0 1 C0 0.67 0 0.34 0 0 Z " fill="#D1D6D2" transform="translate(24,96)"/>
<path d="M0 0 C1.42505859 0.42732422 1.42505859 0.42732422 2.87890625 0.86328125 C4.73506609 1.46121976 6.58748004 2.07082668 8.4375 2.6875 C8.4375 3.3475 8.4375 4.0075 8.4375 4.6875 C2.3865696 3.52195193 -3.59716226 2.23406904 -9.5625 0.6875 C-5.97291299 -1.6631279 -4.01236863 -1.23919412 0 0 Z " fill="#E0E1E0" transform="translate(68.5625,20.3125)"/>
<path d="M0 0 C3.63 0.33 7.26 0.66 11 1 C11 1.33 11 1.66 11 2 C8.36 2.33 5.72 2.66 3 3 C2.34 6.63 1.68 10.26 1 14 C0.67 14 0.34 14 0 14 C0 9.38 0 4.76 0 0 Z " fill="#FDFDF2" transform="translate(65,51)"/>
<path d="M0 0 C6.93 0 13.86 0 21 0 C21.33 0.99 21.66 1.98 22 3 C14.74 2.34 7.48 1.68 0 1 C0 0.67 0 0.34 0 0 Z " fill="#DEDCC8" transform="translate(65,48)"/>
<path d="M0 0 C0.33 0.66 0.66 1.32 1 2 C-4.57067277 3.59162079 -9.21101581 4.20674944 -15 4 C-9.8185816 1.31333861 -5.93942843 -0.27625249 0 0 Z " fill="#D97E45" transform="translate(38,28)"/>
<path d="M0 0 C0.99 0.33 1.98 0.66 3 1 C3 2.65 3 4.3 3 6 C4.32 6.33 5.64 6.66 7 7 C4.36 7 1.72 7 -1 7 C-1.04254356 5.00045254 -1.04080783 2.99958364 -1 1 C-0.67 0.67 -0.34 0.34 0 0 Z " fill="#EB6B4F" transform="translate(51,12)"/>
<path d="M0 0 C1.32 0.33 2.64 0.66 4 1 C3.67257813 1.69480469 3.34515625 2.38960937 3.0078125 3.10546875 C1.87337169 6.36368828 1.79943945 8.87449502 1.875 12.3125 C1.90207031 13.91544922 1.90207031 13.91544922 1.9296875 15.55078125 C1.95289062 16.35902344 1.97609375 17.16726562 2 18 C1.67 18 1.34 18 1 18 C0.04380267 14.00204108 -0.1039592 10.29196078 -0.0625 6.1875 C-0.05347656 5.02605469 -0.04445313 3.86460938 -0.03515625 2.66796875 C-0.02355469 1.78753906 -0.01195312 0.90710937 0 0 Z " fill="#B4B3AF" transform="translate(16,37)"/>
<path d="M0 0 C2.31 0 4.62 0 7 0 C7 1.32 7 2.64 7 4 C4.69 4 2.38 4 0 4 C0 2.68 0 1.36 0 0 Z " fill="#C9C9B8" transform="translate(41,71)"/>
<path d="M0 0 C4.29 1.32 8.58 2.64 13 4 C13 4.33 13 4.66 13 5 C8.71 4.67 4.42 4.34 0 4 C0 2.68 0 1.36 0 0 Z " fill="#919492" transform="translate(16,89)"/>
<path d="M0 0 C0 1.65 0 3.3 0 5 C-2.97 4.505 -2.97 4.505 -6 4 C-6 3.01 -6 2.02 -6 1 C-3 0 -3 0 0 0 Z " fill="#A24B4A" transform="translate(62,14)"/>
<path d="M0 0 C0.33 0.66 0.66 1.32 1 2 C4.02934491 2.65772428 4.02934491 2.65772428 7 3 C6.67 3.99 6.34 4.98 6 6 C3.03 5.505 3.03 5.505 0 5 C0 3.35 0 1.7 0 0 Z " fill="#D01413" transform="translate(21,55)"/>
<path d="M0 0 C0.33 1.32 0.66 2.64 1 4 C-2 6 -2 6 -5 6 C-4.75 4.125 -4.75 4.125 -4 2 C-1.9375 0.75 -1.9375 0.75 0 0 Z " fill="#A3A5A4" transform="translate(89,85)"/>
<path d="M0 0 C2.31 0 4.62 0 7 0 C7 0.99 7 1.98 7 3 C4.69 3.33 2.38 3.66 0 4 C0 2.68 0 1.36 0 0 Z " fill="#CACABB" transform="translate(65,71)"/>
<path d="M0 0 C0.66 0 1.32 0 2 0 C3.6875 1.75 3.6875 1.75 5 4 C4.73495121 7.00388632 4.16695725 7.83304275 2 10 C1.34 6.7 0.68 3.4 0 0 Z " fill="#7E7E79" transform="translate(85,40)"/>
<path d="M0 0 C1.98 0 3.96 0 6 0 C6 1.32 6 2.64 6 4 C4.35 3.67 2.7 3.34 1 3 C0.67 2.01 0.34 1.02 0 0 Z " fill="#B9BDBB" transform="translate(16,87)"/>
<path d="M0 0 C1.65 0 3.3 0 5 0 C5 1.32 5 2.64 5 4 C3.35 4 1.7 4 0 4 C0 2.68 0 1.36 0 0 Z " fill="#B5B6B4" transform="translate(91,82)"/>
<path d="M0 0 C1.32 0 2.64 0 4 0 C4 1.65 4 3.3 4 5 C2.68 5 1.36 5 0 5 C0 3.35 0 1.7 0 0 Z " fill="#AA514F" transform="translate(46,14)"/>
<path d="M0 0 C1.65 0 3.3 0 5 0 C4.34 1.65 3.68 3.3 3 5 C2.01 5 1.02 5 0 5 C0 3.35 0 1.7 0 0 Z " fill="#6E6E6E" transform="translate(14,100)"/>
<path d="M0 0 C0 2.31 0 4.62 0 7 C-1.37562854 5.71034824 -2.70766393 4.37310707 -4 3 C-4 2.34 -4 1.68 -4 1 C-2 0 -2 0 0 0 Z " fill="#ABACA9" transform="translate(90,37)"/>
<path d="M0 0 C0.33 0 0.66 0 1 0 C1 1.65 1 3.3 1 5 C2.65 4.34 4.3 3.68 6 3 C5.34 4.32 4.68 5.64 4 7 C2.68 7 1.36 7 0 7 C0 4.69 0 2.38 0 0 Z " fill="#E00404" transform="translate(74,62)"/>
<path d="M0 0 C1.32 0 2.64 0 4 0 C4 1.98 4 3.96 4 6 C3.01 6.495 3.01 6.495 2 7 C2 5.35 2 3.7 2 2 C1.34 2 0.68 2 0 2 C0 1.34 0 0.68 0 0 Z " fill="#8B8C8C" transform="translate(100,79)"/>
<path d="M0 0 C0.763125 0.20625 1.52625 0.4125 2.3125 0.625 C1.9825 1.285 1.6525 1.945 1.3125 2.625 C-1.75 3.25 -1.75 3.25 -4.6875 3.625 C-5.0175 2.965 -5.3475 2.305 -5.6875 1.625 C-2.6875 -0.375 -2.6875 -0.375 0 0 Z " fill="#4C473A" transform="translate(53.6875,82.375)"/>
</svg>
